<svg width="30" height="30" viewBox="0 0 30 30" fill="none" xmlns="http://www.w3.org/2000/svg">
<path d="M15 30C12.9167 30 10.9723 29.604 9.167 28.812C7.361 28.0207 5.77767 26.9443 4.417 25.583C3.05567 24.2223 1.97933 22.639 1.188 20.833C0.396 19.0277 0 17.0833 0 15C0 13.8053 0.139 12.6457 0.417 11.521C0.694333 10.3957 1.097 9.32633 1.625 8.313C2.153 7.299 2.785 6.35433 3.521 5.479C4.257 4.60433 5.09733 3.81967 6.042 3.125L17.25 14.375L15.292 16.333L5.917 6.958C4.917 8.06933 4.146 9.30567 3.604 10.667C3.06267 12.0277 2.792 13.472 2.792 15C2.792 18.3887 3.97933 21.2707 6.354 23.646C8.72933 26.0207 11.6113 27.208 15 27.208C18.3887 27.208 21.2707 26.0207 23.646 23.646C26.0207 21.2707 27.208 18.3887 27.208 15C27.208 11.8333 26.1593 9.09033 24.062 6.771C21.9653 4.45167 19.3473 3.153 16.208 2.875V6.708H13.458V0H14.958C17.014 0 18.9587 0.396 20.792 1.188C22.6253 1.97933 24.2223 3.04867 25.583 4.396C26.9443 5.74333 28.0207 7.32667 28.812 9.146C29.604 10.9653 30 12.9167 30 15C30 17.0833 29.604 19.0277 28.812 20.833C28.0207 22.639 26.9443 24.2223 25.583 25.583C24.2223 26.9443 22.639 28.0207 20.833 28.812C19.0277 29.604 17.0833 30 15 30ZM14.958 25.458C14.486 25.458 14.0973 25.3053 13.792 25C13.486 24.6947 13.333 24.3197 13.333 23.875C13.333 23.403 13.486 23.014 13.792 22.708C14.0973 22.4027 14.486 22.25 14.958 22.25C15.4027 22.25 15.7777 22.4027 16.083 22.708C16.389 23.014 16.542 23.403 16.542 23.875C16.542 24.3197 16.389 24.6947 16.083 25C15.7777 25.3053 15.4027 25.458 14.958 25.458ZM23.875 16.542C23.403 16.542 23.014 16.389 22.708 16.083C22.4027 15.7777 22.25 15.4027 22.25 14.958C22.25 14.486 22.4027 14.0973 22.708 13.792C23.014 13.486 23.403 13.333 23.875 13.333C24.3197 13.333 24.6947 13.486 25 13.792C25.3053 14.0973 25.458 14.486 25.458 14.958C25.458 15.4027 25.3053 15.7777 25 16.083C24.6947 16.389 24.3197 16.542 23.875 16.542ZM6.125 16.542C5.653 16.542 5.264 16.389 4.958 16.083C4.65267 15.7777 4.5 15.4027 4.5 14.958C4.5 14.486 4.65267 14.0973 4.958 13.792C5.264 13.486 5.653 13.333 6.125 13.333C6.56967 13.333 6.94467 13.486 7.25 13.792C7.55533 14.0973 7.708 14.486 7.708 14.958C7.708 15.4027 7.55533 15.7777 7.25 16.083C6.94467 16.389 6.56967 16.542 6.125 16.542Z" fill="white"/>
</svg>
