<svg width="22" height="18" viewBox="0 0 22 18" fill="none" xmlns="http://www.w3.org/2000/svg">
<path d="M9.13606 12.945C9.55912 13.368 10.1524 13.5705 10.916 13.5524C11.68 13.5338 12.2459 13.2486 12.6137 12.6966L18.6305 3.36773L9.38447 9.46727C8.851 9.81702 8.56572 10.3783 8.52862 11.1511C8.49197 11.924 8.69445 12.5219 9.13606 12.945ZM3.20212 17.6369C2.87092 17.6369 2.54434 17.5541 2.22241 17.3885C1.90003 17.2228 1.65604 16.9837 1.49044 16.6711C1.01217 15.8064 0.644311 14.9185 0.386852 14.0075C0.128951 13.0969 0 12.1262 0 11.0955C0 9.5684 0.289918 8.12874 0.869754 6.77653C1.44915 5.42387 2.23566 4.24609 3.22928 3.2432C4.22291 2.2403 5.39141 1.44915 6.7348 0.869754C8.07818 0.289918 9.50414 0 11.0127 0C12.0615 0 13.1333 0.161188 14.2281 0.483565C15.3233 0.805499 16.3677 1.3436 17.3613 2.09788L15.7053 3.22928C14.9505 2.75102 14.1501 2.39685 13.304 2.16677C12.4574 1.93669 11.6937 1.82165 11.0127 1.82165C8.47342 1.82165 6.31151 2.72342 4.52696 4.52696C2.74197 6.33006 1.84947 8.51957 1.84947 11.0955C1.84947 11.9054 1.95987 12.7151 2.18068 13.5246C2.40148 14.334 2.71437 15.0885 3.11932 15.7881H18.8517C19.2748 15.1256 19.5967 14.3711 19.8175 13.5246C20.0383 12.678 20.1487 11.8407 20.1487 11.0127C20.1487 10.277 20.0476 9.50878 19.8454 8.70814C19.6427 7.90794 19.2929 7.15808 18.7961 6.45857L19.9553 4.80253C20.5996 5.77805 21.092 6.77167 21.4325 7.7834C21.7726 8.79558 21.9611 9.82608 21.9982 10.8749C22.0163 11.9604 21.8966 12.9909 21.6392 13.9664C21.3817 14.9415 21.0046 15.843 20.5078 16.6711C20.3051 17.076 20.0613 17.3381 19.7765 17.4573C19.4912 17.577 19.1644 17.6369 18.7961 17.6369H3.20212Z" fill="#ffffff"/>
</svg>
